<?xml version="1.0" standalone="no"?>
<!DOCTYPE svg PUBLIC "-//W3C//DTD SVG 20010904//EN"
 "http://www.w3.org/TR/2001/REC-SVG-20010904/DTD/svg10.dtd">
<svg version="1.0" xmlns="http://www.w3.org/2000/svg"
 width="980.000000pt" height="980.000000pt" viewBox="0 0 980.000000 980.000000"
 preserveAspectRatio="xMidYMid meet">
<metadata>
Created by potrace 1.11, written by Peter Selinger 2001-2013
</metadata>
<g transform="translate(0.000000,980.000000) scale(0.100000,-0.100000)"
fill="#000000" stroke="none">
<path d="M3390 9449 c-90 -17 -138 -110 -147 -286 l-6 -103 -216 0 c-306 -1
-450 -12 -509 -42 -68 -34 -84 -72 -95 -232 -10 -154 -1 -1815 11 -1991 13
-177 25 -193 165 -217 106 -19 2879 -19 2987 0 147 25 157 45 171 343 13 265
5 1860 -9 1957 -6 38 -20 78 -36 102 -43 65 -77 70 -452 77 l-322 6 -6 45 c-3
25 -6 72 -6 106 -1 100 -13 133 -71 192 l-53 54 -681 -1 c-374 -1 -700 -5
-725 -10z m1100 -1434 l0 -1035 -405 0 -405 0 0 1035 0 1035 405 0 405 0 0
-1035z m-1250 -205 l0 -810 -200 0 -200 0 0 810 0 810 200 0 200 0 0 -810z
m2080 0 l0 -810 -200 0 -200 0 0 810 0 810 200 0 200 0 0 -810z"/>
<path d="M3750 6120 c-370 -20 -833 -119 -1160 -247 -765 -301 -1287 -901
-1425 -1639 -14 -77 -28 -149 -30 -161 -4 -16 -19 -26 -57 -39 -258 -84 -499
-279 -671 -544 -240 -371 -407 -1009 -407 -1558 0 -195 10 -250 52 -292 43
-43 85 -52 278 -57 209 -6 244 1 308 61 37 35 46 51 53 95 10 64 -2 134 -28
170 -11 14 -38 39 -61 55 -34 24 -54 30 -114 34 l-74 4 13 127 c40 388 116
693 238 948 127 265 274 427 482 528 l92 45 2978 0 c3013 -1 3512 -5 3678 -35
517 -91 904 -300 1141 -614 166 -221 304 -606 330 -917 l7 -82 -101 -4 c-93
-3 -105 -6 -144 -34 -117 -82 -123 -256 -13 -340 46 -35 154 -47 375 -42 148
3 170 6 212 27 83 40 92 62 96 236 10 417 -89 858 -265 1185 -195 362 -487
634 -862 801 -278 124 -536 188 -897 224 -88 8 -204 20 -258 25 -62 6 -111 17
-130 28 -33 19 -34 22 -106 225 -49 137 -171 390 -255 527 -261 430 -620 760
-1060 975 -186 91 -335 145 -534 196 -217 56 -365 77 -611 89 -237 11 -859 11
-1070 0z m1265 -440 c820 -115 1440 -554 1769 -1251 43 -92 126 -305 126 -325
0 -2 -634 -4 -1410 -4 l-1410 0 0 801 0 801 423 -5 c232 -3 458 -10 502 -17z
m-1345 -790 l0 -790 -1050 0 c-833 0 -1050 3 -1050 13 1 30 42 203 65 274 122
364 373 679 715 898 264 170 693 313 1160 388 14 2 55 5 93 6 l67 1 0 -790z"/>
<path d="M2050 2796 c-330 -69 -605 -284 -761 -595 -69 -138 -84 -212 -84
-406 0 -148 3 -180 23 -250 50 -173 135 -319 265 -452 262 -270 638 -383 960
-289 349 103 654 414 749 763 31 113 31 314 0 438 -27 109 -112 285 -181 376
-62 82 -179 193 -260 248 -85 58 -208 115 -316 147 -110 32 -292 41 -395 20z
m329 -436 c111 -19 212 -86 309 -207 57 -70 78 -120 98 -221 28 -147 10 -315
-47 -430 -56 -115 -207 -239 -339 -279 -68 -21 -267 -23 -355 -4 -98 21 -182
68 -261 146 -118 117 -159 229 -158 440 0 108 4 141 23 194 30 87 76 154 157
232 75 72 132 106 209 125 62 15 278 17 364 4z"/>
<path d="M7443 2795 c-100 -18 -164 -40 -267 -93 -230 -118 -420 -316 -511
-531 -59 -141 -70 -198 -70 -386 0 -148 3 -180 23 -250 52 -179 139 -324 271
-455 139 -136 306 -235 478 -282 107 -29 335 -31 438 -4 187 50 349 147 501
300 147 148 217 260 268 427 83 273 40 548 -127 801 -229 349 -634 540 -1004
473z m383 -452 c162 -52 292 -195 340 -373 24 -91 24 -283 0 -365 -44 -149
-160 -285 -297 -350 -212 -100 -538 -53 -688 98 -61 63 -73 79 -111 156 -84
169 -79 430 10 586 77 135 221 245 350 269 14 2 95 3 180 1 120 -2 169 -7 216
-22z"/>
<path d="M3753 1948 c-65 -68 -73 -84 -73 -157 0 -79 8 -97 71 -159 l54 -52
950 1 c523 0 1025 4 1117 8 148 8 170 11 198 31 102 73 98 276 -7 342 -35 21
-51 22 -322 29 -157 4 -657 8 -1111 8 l-826 1 -51 -52z"/>
<path d="M432 740 c-205 -7 -217 -11 -259 -86 -33 -58 -38 -105 -17 -180 20
-76 34 -88 119 -103 151 -27 711 -31 4932 -31 l4361 0 43 48 c85 95 100 189
44 273 -46 71 -47 71 -338 80 -308 9 -8616 9 -8885 -1z"/>
</g>
</svg>
